<svg width="156" height="156" viewBox="0 0 601 156" fill="none" xmlns="http://www.w3.org/2000/svg">
<path d="M59.75 21.25V119H34.25V21.25H0.08V0.339998H93.92V21.25H59.75ZM151.314 121.04C136.58 121.04 125.417 116.96 117.824 108.8C110.23 100.64 106.434 89.5333 106.434 75.48C106.434 68.34 107.397 61.9367 109.324 56.27C111.364 50.49 114.197 45.6167 117.824 41.65C121.564 37.57 126.04 34.51 131.254 32.47C136.58 30.3167 142.53 29.24 149.104 29.24C155.677 29.24 161.57 30.3167 166.784 32.47C171.997 34.51 176.417 37.4567 180.044 41.31C183.67 45.1633 186.447 49.8667 188.374 55.42C190.414 60.86 191.434 66.98 191.434 73.78V81.26H131.424V82.79C131.424 88.4567 133.18 93.0467 136.694 96.56C140.207 99.96 145.364 101.66 152.164 101.66C157.377 101.66 161.854 100.697 165.594 98.77C169.334 96.73 172.564 94.0667 175.284 90.78L188.884 105.57C185.484 109.763 180.724 113.39 174.604 116.45C168.484 119.51 160.72 121.04 151.314 121.04ZM149.274 47.26C143.834 47.26 139.47 48.96 136.184 52.36C133.01 55.6467 131.424 60.1233 131.424 65.79V67.15H166.784V65.79C166.784 60.01 165.197 55.4767 162.024 52.19C158.964 48.9033 154.714 47.26 149.274 47.26ZM203.777 119L236.587 74.46L205.987 31.28H234.717L244.067 45.39L251.207 56.78H252.567L259.877 45.39L269.397 31.28H295.747L265.147 73.1L297.957 119H269.057L258.007 102.51L250.357 90.78H248.997L241.517 102.51L230.297 119H203.777ZM367.591 103.02H366.571C364.644 108.007 361.584 112.257 357.391 115.77C353.311 119.283 347.757 121.04 340.731 121.04C336.537 121.04 332.684 120.36 329.171 119C325.657 117.527 322.654 115.373 320.161 112.54C317.667 109.707 315.684 106.25 314.211 102.17C312.851 98.09 312.171 93.3867 312.171 88.06V31.28H337.331V84.66C337.331 95.9933 342.261 101.66 352.121 101.66C354.047 101.66 355.917 101.433 357.731 100.98C359.657 100.413 361.301 99.62 362.661 98.6C364.134 97.4667 365.324 96.1067 366.231 94.52C367.137 92.9333 367.591 91.0633 367.591 88.91V31.28H392.751V119H367.591V103.02ZM502.844 127.84C502.844 137.133 498.934 143.99 491.114 148.41C483.294 152.83 470.998 155.04 454.224 155.04C445.838 155.04 438.924 154.53 433.484 153.51C428.044 152.603 423.681 151.243 420.394 149.43C417.221 147.617 414.954 145.463 413.594 142.97C412.348 140.477 411.724 137.757 411.724 134.81C411.724 129.823 413.198 126.027 416.144 123.42C419.091 120.927 423.228 119 428.554 117.64V116.62C424.814 115.487 421.811 113.9 419.544 111.86C417.391 109.707 416.314 106.703 416.314 102.85C416.314 98.5433 417.731 95.37 420.564 93.33C423.511 91.29 427.364 89.7033 432.124 88.57V87.55C426.911 85.0567 422.831 81.5433 419.884 77.01C417.051 72.4767 415.634 66.98 415.634 60.52C415.634 55.42 416.541 50.9433 418.354 47.09C420.168 43.1233 422.718 39.8367 426.004 37.23C429.404 34.6233 433.428 32.64 438.074 31.28C442.721 29.92 447.934 29.24 453.714 29.24C459.268 29.24 464.424 29.8633 469.184 31.11V26.35C469.184 22.95 470.374 20.1167 472.754 17.85C475.134 15.5833 478.421 14.45 482.614 14.45H498.084V32.81H477.004V34.34C481.764 36.8333 485.448 40.29 488.054 44.71C490.774 49.0167 492.134 54.2867 492.134 60.52C492.134 65.62 491.228 70.0967 489.414 73.95C487.601 77.8033 484.994 81.09 481.594 83.81C478.194 86.4167 474.114 88.4 469.354 89.76C464.708 91.12 459.494 91.8 453.714 91.8C451.108 91.8 448.614 91.6867 446.234 91.46C443.854 91.12 441.588 90.6667 439.434 90.1C438.188 90.78 437.111 91.63 436.204 92.65C435.411 93.67 435.014 94.9733 435.014 96.56C435.014 97.92 435.354 98.9967 436.034 99.79C436.714 100.583 437.621 101.207 438.754 101.66C440.001 102 441.418 102.227 443.004 102.34C444.591 102.453 446.234 102.51 447.934 102.51H467.994C474.228 102.51 479.554 103.133 483.974 104.38C488.394 105.627 492.021 107.383 494.854 109.65C497.688 111.917 499.728 114.58 500.974 117.64C502.221 120.7 502.844 124.1 502.844 127.84ZM479.044 129.71C479.044 127.443 478.138 125.63 476.324 124.27C474.511 123.023 471.054 122.4 465.954 122.4H435.864C433.598 124.327 432.464 126.707 432.464 129.54C432.464 132.26 433.598 134.47 435.864 136.17C438.244 137.983 442.211 138.89 447.764 138.89H462.554C468.334 138.89 472.528 138.097 475.134 136.51C477.741 134.923 479.044 132.657 479.044 129.71ZM453.714 75.82C458.814 75.82 462.498 74.5733 464.764 72.08C467.144 69.5867 468.334 66.4133 468.334 62.56V58.48C468.334 54.6267 467.144 51.4533 464.764 48.96C462.498 46.4667 458.814 45.22 453.714 45.22C448.728 45.22 445.101 46.4667 442.834 48.96C440.568 51.4533 439.434 54.6267 439.434 58.48V62.56C439.434 66.4133 440.568 69.5867 442.834 72.08C445.101 74.5733 448.728 75.82 453.714 75.82ZM556.668 121.04C549.868 121.04 543.748 120.02 538.308 117.98C532.868 115.827 528.221 112.767 524.368 108.8C520.628 104.833 517.738 100.017 515.698 94.35C513.658 88.6833 512.638 82.28 512.638 75.14C512.638 68 513.658 61.5967 515.698 55.93C517.738 50.2633 520.628 45.4467 524.368 41.48C528.221 37.5133 532.868 34.51 538.308 32.47C543.748 30.3167 549.868 29.24 556.668 29.24C563.468 29.24 569.588 30.3167 575.028 32.47C580.468 34.51 585.058 37.5133 588.798 41.48C592.651 45.4467 595.598 50.2633 597.638 55.93C599.678 61.5967 600.698 68 600.698 75.14C600.698 82.28 599.678 88.6833 597.638 94.35C595.598 100.017 592.651 104.833 588.798 108.8C585.058 112.767 580.468 115.827 575.028 117.98C569.588 120.02 563.468 121.04 556.668 121.04ZM556.668 102.34C562.335 102.34 566.755 100.583 569.928 97.07C573.101 93.5567 574.688 88.57 574.688 82.11V68.17C574.688 61.71 573.101 56.7233 569.928 53.21C566.755 49.6967 562.335 47.94 556.668 47.94C551.001 47.94 546.581 49.6967 543.408 53.21C540.235 56.7233 538.648 61.71 538.648 68.17V82.11C538.648 88.57 540.235 93.5567 543.408 97.07C546.581 100.583 551.001 102.34 556.668 102.34Z" fill="url(#paint0_linear_1_4)"/>
<defs>
<linearGradient id="paint0_linear_1_4" x1="-105.14" y1="-64.7229" x2="557.974" y2="295.822" gradientUnits="userSpaceOnUse">
<stop stop-color="#FFD700" stop-opacity="0.29"/>
<stop offset="1" stop-color="#FF0000"/>
</linearGradient>
</defs>
</svg>
